<svg width="20" height="20" viewBox="0 0 20 20" fill="none" xmlns="http://www.w3.org/2000/svg">
<path d="M6.66683 10.8346C6.2066 10.8346 5.8335 10.4616 5.8335 10.0013C5.8335 9.54105 6.2066 9.16797 6.66683 9.16797C7.12706 9.16797 7.50016 9.54105 7.50016 10.0013C7.50016 10.4616 7.12706 10.8346 6.66683 10.8346Z" fill="#838383"/>
<path d="M6.66683 14.1667C6.2066 14.1667 5.8335 13.7936 5.8335 13.3333C5.8335 12.8731 6.2066 12.5 6.66683 12.5C7.12706 12.5 7.50016 12.8731 7.50016 13.3333C7.50016 13.7936 7.12706 14.1667 6.66683 14.1667Z" fill="#838383"/>
<path d="M9.1665 13.3333C9.1665 13.7936 9.53959 14.1667 9.99984 14.1667C10.4601 14.1667 10.8332 13.7936 10.8332 13.3333C10.8332 12.8731 10.4601 12.5 9.99984 12.5C9.53959 12.5 9.1665 12.8731 9.1665 13.3333Z" fill="#838383"/>
<path d="M13.3333 14.1667C12.8731 14.1667 12.5 13.7936 12.5 13.3333C12.5 12.8731 12.8731 12.5 13.3333 12.5C13.7936 12.5 14.1667 12.8731 14.1667 13.3333C14.1667 13.7936 13.7936 14.1667 13.3333 14.1667Z" fill="#838383"/>
<path d="M9.1665 10.0013C9.1665 10.4616 9.53959 10.8346 9.99984 10.8346C10.4601 10.8346 10.8332 10.4616 10.8332 10.0013C10.8332 9.54105 10.4601 9.16797 9.99984 9.16797C9.53959 9.16797 9.1665 9.54105 9.1665 10.0013Z" fill="#838383"/>
<path d="M13.3333 10.8346C12.8731 10.8346 12.5 10.4616 12.5 10.0013C12.5 9.54105 12.8731 9.16797 13.3333 9.16797C13.7936 9.16797 14.1667 9.54105 14.1667 10.0013C14.1667 10.4616 13.7936 10.8346 13.3333 10.8346Z" fill="#838383"/>
<path d="M6.66683 5.83203C6.2066 5.83203 5.8335 6.20513 5.8335 6.66536C5.8335 7.1256 6.2066 7.4987 6.66683 7.4987H13.3335C13.7937 7.4987 14.1668 7.1256 14.1668 6.66536C14.1668 6.20513 13.7937 5.83203 13.3335 5.83203H6.66683Z" fill="#838383"/>
<path fill-rule="evenodd" clip-rule="evenodd" d="M5 2.5C3.61929 2.5 2.5 3.61929 2.5 5V15C2.5 16.3807 3.61929 17.5 5 17.5H15C16.3807 17.5 17.5 16.3807 17.5 15V5C17.5 3.61929 16.3807 2.5 15 2.5H5ZM15 4.16667H5C4.53977 4.16667 4.16667 4.53977 4.16667 5V15C4.16667 15.4602 4.53977 15.8333 5 15.8333H15C15.4602 15.8333 15.8333 15.4602 15.8333 15V5C15.8333 4.53977 15.4602 4.16667 15 4.16667Z" fill="#838383"/>
</svg>
