<svg width="28" height="28" viewBox="0 0 28 28" fill="none" xmlns="http://www.w3.org/2000/svg">
<path d="M0 8C0 3.58172 3.58172 0 8 0H20C24.4183 0 28 3.58172 28 8V20C28 24.4183 24.4183 28 20 28H8C3.58172 28 0 24.4183 0 20V8Z" fill="#3A3937" fill-opacity="0.1"/>
<path d="M19 22.3327C18.3056 22.3327 17.7153 22.0896 17.2292 21.6035C16.7431 21.1174 16.5 20.5271 16.5 19.8327C16.5 19.7494 16.5208 19.5549 16.5625 19.2494L10.7083 15.8327C10.4861 16.041 10.2292 16.2042 9.9375 16.3223C9.64583 16.4403 9.33333 16.4994 9 16.4994C8.30556 16.4994 7.71528 16.2563 7.22917 15.7702C6.74306 15.2841 6.5 14.6938 6.5 13.9993C6.5 13.3049 6.74306 12.7146 7.22917 12.2285C7.71528 11.7424 8.30556 11.4993 9 11.4993C9.33333 11.4993 9.64583 11.5584 9.9375 11.6764C10.2292 11.7945 10.4861 11.9577 10.7083 12.166L16.5625 8.74935C16.5347 8.65213 16.5174 8.55838 16.5104 8.4681C16.5035 8.37782 16.5 8.27713 16.5 8.16602C16.5 7.47157 16.7431 6.88129 17.2292 6.39518C17.7153 5.90907 18.3056 5.66602 19 5.66602C19.6944 5.66602 20.2847 5.90907 20.7708 6.39518C21.2569 6.88129 21.5 7.47157 21.5 8.16602C21.5 8.86046 21.2569 9.45074 20.7708 9.93685C20.2847 10.423 19.6944 10.666 19 10.666C18.6667 10.666 18.3542 10.607 18.0625 10.4889C17.7708 10.3709 17.5139 10.2077 17.2917 9.99935L11.4375 13.416C11.4653 13.5132 11.4826 13.607 11.4896 13.6973C11.4965 13.7875 11.5 13.8882 11.5 13.9993C11.5 14.1105 11.4965 14.2112 11.4896 14.3014C11.4826 14.3917 11.4653 14.4855 11.4375 14.5827L17.2917 17.9994C17.5139 17.791 17.7708 17.6278 18.0625 17.5098C18.3542 17.3917 18.6667 17.3327 19 17.3327C19.6944 17.3327 20.2847 17.5757 20.7708 18.0619C21.2569 18.548 21.5 19.1382 21.5 19.8327C21.5 20.5271 21.2569 21.1174 20.7708 21.6035C20.2847 22.0896 19.6944 22.3327 19 22.3327ZM19 20.666C19.2361 20.666 19.434 20.5862 19.5938 20.4264C19.7535 20.2667 19.8333 20.0688 19.8333 19.8327C19.8333 19.5966 19.7535 19.3987 19.5938 19.2389C19.434 19.0792 19.2361 18.9994 19 18.9994C18.7639 18.9994 18.566 19.0792 18.4062 19.2389C18.2465 19.3987 18.1667 19.5966 18.1667 19.8327C18.1667 20.0688 18.2465 20.2667 18.4062 20.4264C18.566 20.5862 18.7639 20.666 19 20.666ZM9 14.8327C9.23611 14.8327 9.43403 14.7528 9.59375 14.5931C9.75347 14.4334 9.83333 14.2355 9.83333 13.9993C9.83333 13.7632 9.75347 13.5653 9.59375 13.4056C9.43403 13.2459 9.23611 13.166 9 13.166C8.76389 13.166 8.56597 13.2459 8.40625 13.4056C8.24653 13.5653 8.16667 13.7632 8.16667 13.9993C8.16667 14.2355 8.24653 14.4334 8.40625 14.5931C8.56597 14.7528 8.76389 14.8327 9 14.8327ZM19 8.99935C19.2361 8.99935 19.434 8.91949 19.5938 8.75977C19.7535 8.60004 19.8333 8.40213 19.8333 8.16602C19.8333 7.9299 19.7535 7.73199 19.5938 7.57227C19.434 7.41254 19.2361 7.33268 19 7.33268C18.7639 7.33268 18.566 7.41254 18.4062 7.57227C18.2465 7.73199 18.1667 7.9299 18.1667 8.16602C18.1667 8.40213 18.2465 8.60004 18.4062 8.75977C18.566 8.91949 18.7639 8.99935 19 8.99935Z" fill="#3A3937"/>
</svg>
