<svg width="20" height="20" viewBox="0 0 20 20" fill="none" xmlns="http://www.w3.org/2000/svg">
<path d="M9.99984 18.3346C8.84706 18.3346 7.76373 18.1159 6.74984 17.6784C5.73595 17.2409 4.854 16.6471 4.104 15.8971C3.354 15.1471 2.76025 14.2652 2.32275 13.2513C1.88525 12.2374 1.6665 11.1541 1.6665 10.0013C1.6665 8.84852 1.88525 7.76519 2.32275 6.7513C2.76025 5.73741 3.354 4.85547 4.104 4.10547C4.854 3.35547 5.73595 2.76172 6.74984 2.32422C7.76373 1.88672 8.84706 1.66797 9.99984 1.66797C11.1526 1.66797 12.2359 1.88672 13.2498 2.32422C14.2637 2.76172 15.1457 3.35547 15.8957 4.10547C16.6457 4.85547 17.2394 5.73741 17.6769 6.7513C18.1144 7.76519 18.3332 8.84852 18.3332 10.0013C18.3332 11.1541 18.1144 12.2374 17.6769 13.2513C17.2394 14.2652 16.6457 15.1471 15.8957 15.8971C15.1457 16.6471 14.2637 17.2409 13.2498 17.6784C12.2359 18.1159 11.1526 18.3346 9.99984 18.3346ZM9.1665 16.6263V15.0013C8.70817 15.0013 8.31581 14.8381 7.98942 14.5117C7.66303 14.1853 7.49984 13.793 7.49984 13.3346V12.5013L3.49984 8.5013C3.45817 8.7513 3.41998 9.0013 3.38525 9.2513C3.35053 9.5013 3.33317 9.7513 3.33317 10.0013C3.33317 11.6819 3.88525 13.1541 4.98942 14.418C6.09359 15.6819 7.48595 16.418 9.1665 16.6263ZM14.9165 14.5013C15.4859 13.8763 15.92 13.1784 16.2186 12.4076C16.5172 11.6367 16.6665 10.8346 16.6665 10.0013C16.6665 8.64019 16.288 7.39714 15.5311 6.27214C14.7741 5.14714 13.7637 4.33464 12.4998 3.83464V4.16797C12.4998 4.6263 12.3366 5.01866 12.0103 5.34505C11.6839 5.67144 11.2915 5.83464 10.8332 5.83464H9.1665V7.5013C9.1665 7.73741 9.08664 7.93533 8.92692 8.09505C8.7672 8.25477 8.56928 8.33463 8.33317 8.33463H6.6665V10.0013H11.6665C11.9026 10.0013 12.1005 10.0812 12.2603 10.2409C12.42 10.4006 12.4998 10.5985 12.4998 10.8346V13.3346H13.3332C13.6943 13.3346 14.0207 13.4423 14.3123 13.6576C14.604 13.8728 14.8054 14.1541 14.9165 14.5013Z" fill="#838383"/>
</svg>
