<svg width="28" height="28" viewBox="0 0 28 28" fill="none" xmlns="http://www.w3.org/2000/svg">
<path d="M0 8C0 3.58172 3.58172 0 8 0H20C24.4183 0 28 3.58172 28 8V20C28 24.4183 24.4183 28 20 28H8C3.58172 28 0 24.4183 0 20V8Z" fill="#3A3937" fill-opacity="0.1"/>
<path d="M19.8333 19.8333H8.16667V8.16667H14V6.5H8.16667C7.72464 6.5 7.30072 6.67559 6.98816 6.98816C6.67559 7.30072 6.5 7.72464 6.5 8.16667V19.8333C6.5 20.2754 6.67559 20.6993 6.98816 21.0118C7.30072 21.3244 7.72464 21.5 8.16667 21.5H19.8333C20.75 21.5 21.5 20.75 21.5 19.8333V14H19.8333V19.8333ZM15.6667 6.5V8.16667H18.6583L10.4667 16.3583L11.6417 17.5333L19.8333 9.34167V12.3333H21.5V6.5H15.6667Z" fill="#3A3937"/>
</svg>
