<svg width="20" height="20" viewBox="0 0 20 20" fill="none" xmlns="http://www.w3.org/2000/svg">
<path d="M10.0007 9.9987C9.08398 9.9987 8.29926 9.67231 7.64648 9.01953C6.99371 8.36675 6.66732 7.58203 6.66732 6.66536C6.66732 5.7487 6.99371 4.96398 7.64648 4.3112C8.29926 3.65842 9.08398 3.33203 10.0007 3.33203C10.9173 3.33203 11.702 3.65842 12.3548 4.3112C13.0076 4.96398 13.334 5.7487 13.334 6.66536C13.334 7.58203 13.0076 8.36675 12.3548 9.01953C11.702 9.67231 10.9173 9.9987 10.0007 9.9987ZM3.33398 16.6654V14.332C3.33398 13.8598 3.45551 13.4258 3.69857 13.0299C3.94162 12.6341 4.26454 12.332 4.66732 12.1237C5.52843 11.6931 6.40343 11.3702 7.29232 11.1549C8.18121 10.9397 9.08398 10.832 10.0007 10.832C10.9173 10.832 11.8201 10.9397 12.709 11.1549C13.5979 11.3702 14.4729 11.6931 15.334 12.1237C15.7368 12.332 16.0597 12.6341 16.3027 13.0299C16.5458 13.4258 16.6673 13.8598 16.6673 14.332V16.6654H3.33398ZM5.00065 14.9987H15.0007V14.332C15.0007 14.1793 14.9625 14.0404 14.8861 13.9154C14.8097 13.7904 14.709 13.6931 14.584 13.6237C13.834 13.2487 13.077 12.9674 12.3132 12.7799C11.5493 12.5924 10.7784 12.4987 10.0007 12.4987C9.22287 12.4987 8.45204 12.5924 7.68815 12.7799C6.92426 12.9674 6.16732 13.2487 5.41732 13.6237C5.29232 13.6931 5.19162 13.7904 5.11523 13.9154C5.03885 14.0404 5.00065 14.1793 5.00065 14.332V14.9987ZM10.0007 8.33203C10.459 8.33203 10.8513 8.16884 11.1777 7.84245C11.5041 7.51606 11.6673 7.1237 11.6673 6.66536C11.6673 6.20703 11.5041 5.81467 11.1777 5.48828C10.8513 5.16189 10.459 4.9987 10.0007 4.9987C9.54232 4.9987 9.14996 5.16189 8.82357 5.48828C8.49718 5.81467 8.33398 6.20703 8.33398 6.66536C8.33398 7.1237 8.49718 7.51606 8.82357 7.84245C9.14996 8.16884 9.54232 8.33203 10.0007 8.33203Z" fill="#838383"/>
</svg>
