<?xml version="1.0" encoding="UTF-8"?>
<svg version="1.1" xmlns="http://www.w3.org/2000/svg" width="24" height="24">
<path d="M0 0 C3.96 0 7.92 0 12 0 C12 3.96 12 7.92 12 12 C11.34 12 10.68 12 10 12 C9.67 10.02 9.34 8.04 9 6 C8.52949219 6.5053125 8.05898437 7.010625 7.57421875 7.53125 C6.95160156 8.1809375 6.32898438 8.830625 5.6875 9.5 C5.07261719 10.1496875 4.45773438 10.799375 3.82421875 11.46875 C2 13 2 13 -1 13 C-0.42424336 9.64749299 0.59306263 8.06181371 3.0625 5.75 C3.88427734 4.96882812 3.88427734 4.96882812 4.72265625 4.171875 C5.35494141 3.59179688 5.35494141 3.59179688 6 3 C3.03 2.505 3.03 2.505 0 2 C0 1.34 0 0.68 0 0 Z " fill="#393837" transform="translate(6,5)"/>
</svg>
