<svg width="33" height="32" viewBox="0 0 33 32" fill="none" xmlns="http://www.w3.org/2000/svg">
<path d="M16.5 11.34C13.92 11.34 11.84 13.44 11.84 16C11.84 18.56 13.94 20.66 16.5 20.66C19.06 20.66 21.16 18.56 21.16 16C21.16 13.44 19.06 11.34 16.5 11.34ZM30.5 16C30.5 14.06 30.5 12.16 30.4 10.22C30.3 7.98 29.78 5.98 28.14 4.36C26.5 2.72 24.52 2.2 22.28 2.1C20.34 2 18.44 2 16.5 2C14.56 2 12.66 2 10.72 2.1C8.48 2.2 6.48 2.72 4.86 4.36C3.22 6 2.7 7.98 2.6 10.22C2.5 12.16 2.5 14.06 2.5 16C2.5 17.94 2.5 19.84 2.6 21.78C2.7 24.02 3.22 26.02 4.86 27.64C6.5 29.28 8.48 29.8 10.72 29.9C12.66 30 14.56 30 16.5 30C18.44 30 20.34 30 22.28 29.9C24.52 29.8 26.52 29.28 28.14 27.64C29.78 26 30.3 24.02 30.4 21.78C30.52 19.86 30.5 17.94 30.5 16ZM16.5 23.18C12.52 23.18 9.32 19.98 9.32 16C9.32 12.02 12.52 8.82 16.5 8.82C20.48 8.82 23.68 12.02 23.68 16C23.68 19.98 20.48 23.18 16.5 23.18ZM23.98 10.2C23.06 10.2 22.3 9.46 22.3 8.52C22.3 7.58 23.04 6.84 23.98 6.84C24.92 6.84 25.66 7.58 25.66 8.52C25.6651 8.73907 25.6251 8.95685 25.5425 9.15983C25.4599 9.36281 25.3365 9.54667 25.18 9.7C25.0267 9.85655 24.8428 9.97993 24.6398 10.0625C24.4368 10.1451 24.2191 10.1851 24 10.18L23.98 10.2Z" fill="#3A3937"/>
</svg>
