<svg width="33" height="32" viewBox="0 0 33 32" fill="none" xmlns="http://www.w3.org/2000/svg">
<path d="M18.8733 12.6146C18.8068 12.6146 18.7409 12.6277 18.6794 12.6532C18.6179 12.6787 18.5621 12.716 18.515 12.763C18.468 12.8101 18.4307 12.8659 18.4052 12.9274C18.3797 12.9889 18.3666 13.0548 18.3666 13.1213V15.348L16.5 12.868C16.4534 12.7925 16.3889 12.7298 16.312 12.6856C16.2352 12.6414 16.1486 12.617 16.06 12.6146C15.9934 12.6146 15.9275 12.6277 15.8661 12.6532C15.8046 12.6787 15.7487 12.716 15.7017 12.763C15.6546 12.8101 15.6173 12.8659 15.5919 12.9274C15.5664 12.9889 15.5533 13.0548 15.5533 13.1213V16.908C15.5533 16.9745 15.5664 17.0404 15.5919 17.1019C15.6173 17.1633 15.6546 17.2192 15.7017 17.2662C15.7487 17.3133 15.8046 17.3506 15.8661 17.3761C15.9275 17.4015 15.9934 17.4146 16.06 17.4146C16.1265 17.4146 16.1924 17.4015 16.2539 17.3761C16.3153 17.3506 16.3712 17.3133 16.4182 17.2662C16.4653 17.2192 16.5026 17.1633 16.5281 17.1019C16.5535 17.0404 16.5666 16.9745 16.5666 16.908V14.668L18.42 17.2146C18.4671 17.2857 18.538 17.3376 18.62 17.3613C18.6813 17.376 18.7453 17.376 18.8066 17.3613C18.8651 17.3826 18.9274 17.3912 18.9895 17.3866C19.0515 17.382 19.1119 17.3643 19.1666 17.3346L19.3 17.2413C19.3924 17.144 19.4448 17.0155 19.4466 16.8813V13.1213C19.4473 13.0488 19.4323 12.9769 19.4028 12.9107C19.3733 12.8444 19.3298 12.7853 19.2755 12.7372C19.2211 12.6892 19.1571 12.6534 19.0877 12.6322C19.0183 12.6111 18.9452 12.6051 18.8733 12.6146ZM12.7666 16.3613H11.3533V13.1213C11.3533 12.9869 11.2999 12.8581 11.2049 12.763C11.1099 12.668 10.981 12.6146 10.8466 12.6146C10.7122 12.6146 10.5834 12.668 10.4884 12.763C10.3933 12.8581 10.34 12.9869 10.34 13.1213V16.908C10.34 17.0423 10.3933 17.1712 10.4884 17.2662C10.5834 17.3613 10.7122 17.4146 10.8466 17.4146H12.7666C12.9023 17.4147 13.0325 17.3617 13.1297 17.2671C13.2268 17.1724 13.2831 17.0436 13.2866 16.908C13.2902 16.8375 13.2795 16.767 13.255 16.7008C13.2305 16.6346 13.1927 16.5741 13.1441 16.5229C13.0954 16.4718 13.0369 16.4311 12.972 16.4033C12.9071 16.3755 12.8372 16.3612 12.7666 16.3613ZM14.2466 12.6146C14.111 12.6146 13.9807 12.6675 13.8836 12.7622C13.7864 12.8568 13.7301 12.9857 13.7266 13.1213V16.908C13.7301 17.0436 13.7864 17.1724 13.8836 17.2671C13.9807 17.3617 14.111 17.4147 14.2466 17.4146C14.381 17.4146 14.5099 17.3613 14.6049 17.2662C14.6999 17.1712 14.7533 17.0423 14.7533 16.908V13.1213C14.7533 12.9869 14.6999 12.8581 14.6049 12.763C14.5099 12.668 14.381 12.6146 14.2466 12.6146ZM24.38 2.66797H8.61996C7.17473 2.67149 5.7897 3.24717 4.76776 4.2691C3.74582 5.29104 3.17015 6.67607 3.16663 8.1213V23.8813C3.17015 25.3265 3.74582 26.7116 4.76776 27.7335C5.7897 28.7554 7.17473 29.3311 8.61996 29.3346H24.38C25.8252 29.3311 27.2102 28.7554 28.2322 27.7335C29.2541 26.7116 29.8298 25.3265 29.8333 23.8813V8.1213C29.8298 6.67607 29.2541 5.29104 28.2322 4.2691C27.2102 3.24717 25.8252 2.67149 24.38 2.66797ZM24.7933 19.0413C24.7396 19.1199 24.6817 19.1956 24.62 19.268C24.302 19.6592 23.9446 20.0167 23.5533 20.3346C20.8866 22.828 16.4066 25.8146 15.8066 25.348C15.2066 24.8813 16.66 23.0013 15.1 22.6813C14.9893 22.6952 14.8773 22.6952 14.7666 22.6813C10.18 22.0413 6.76663 18.828 6.76663 14.9746C6.76663 10.6413 11.1533 7.13463 16.5533 7.13463C21.9533 7.13463 26.34 10.6413 26.34 14.9746C26.2937 16.465 25.7491 17.8969 24.7933 19.0413ZM22.5133 12.628H20.5C20.4334 12.628 20.3675 12.6411 20.3061 12.6665C20.2446 12.692 20.1887 12.7293 20.1417 12.7764C20.0946 12.8234 20.0573 12.8793 20.0319 12.9407C20.0064 13.0022 19.9933 13.0681 19.9933 13.1346V16.9213C19.9933 17.0557 20.0467 17.1845 20.1417 17.2796C20.2367 17.3746 20.3656 17.428 20.5 17.428H22.4733C22.6077 17.428 22.7365 17.3746 22.8316 17.2796C22.9266 17.1845 22.98 17.0557 22.98 16.9213C22.98 16.8548 22.9669 16.7889 22.9414 16.7274C22.9159 16.6659 22.8786 16.6101 22.8316 16.563C22.7845 16.516 22.7287 16.4787 22.6672 16.4532C22.6057 16.4277 22.5398 16.4146 22.4733 16.4146H21.1V15.6146H22.5133C22.6489 15.6112 22.7777 15.5548 22.8724 15.4577C22.9671 15.3606 23.02 15.2303 23.02 15.0946C23.02 14.9603 22.9666 14.8314 22.8716 14.7364C22.7765 14.6413 22.6477 14.588 22.5133 14.588H21.1V13.7746H22.5133C22.5798 13.7746 22.6457 13.7615 22.7072 13.7361C22.7687 13.7106 22.8245 13.6733 22.8716 13.6262C22.9186 13.5792 22.9559 13.5233 22.9814 13.4619C23.0069 13.4004 23.02 13.3345 23.02 13.268C23.0409 13.1913 23.0436 13.1108 23.0277 13.033C23.0118 12.9551 22.9778 12.8821 22.9285 12.8198C22.8792 12.7575 22.8159 12.7077 22.7438 12.6744C22.6716 12.6411 22.5927 12.6252 22.5133 12.628Z" fill="#3A3937"/>
</svg>
