<svg width="60" height="40" viewBox="0 0 60 40" fill="none" xmlns="http://www.w3.org/2000/svg">
<path d="M27.7549 25.7641C28.5551 25.6488 29.3384 25.4267 30.0991 25.168C29.3441 25.4239 28.5495 25.6488 27.7549 25.7641Z" fill="#179BC6"/>
<path d="M27.4521 25.8016C27.5285 25.7931 27.6048 25.7847 27.684 25.7734C27.6077 25.7847 27.5313 25.7931 27.4521 25.8016Z" fill="#179BC6"/>
<path d="M35.8672 24.9115C35.8078 24.8469 35.7428 24.7878 35.6721 24.7288C34.049 23.3931 31.7727 24.6022 30.1015 25.1702C29.338 25.4289 28.5547 25.6511 27.7573 25.7664C27.7347 25.7692 27.7092 25.7748 27.6866 25.7776C27.6103 25.7889 27.5339 25.7973 27.4548 25.8057C27.401 25.8114 27.3501 25.817 27.2964 25.8226C27.271 25.8226 27.2455 25.8282 27.2201 25.831C26.4424 25.8929 25.7101 26.0982 24.9833 25.6933C24.8646 25.6258 24.7515 25.5498 24.6468 25.4683C24.6129 25.4514 24.5846 25.4261 24.5677 25.398C24.2877 25.1646 24.0474 24.8834 23.8381 24.5825C23.4875 24.0792 23.2075 23.4915 23.2443 22.8785C23.3008 21.8999 24.135 21.152 24.9748 20.6402C26.1399 19.9316 27.4378 19.4535 28.5858 18.7168C29.2447 18.295 29.864 17.7579 30.3107 17.1224C30.5992 14.8785 29.912 9.48799 24.4376 8.08764C23.4309 7.83175 22.396 7.72489 21.3582 7.69677C20.3148 7.66865 19.2487 7.68553 18.2619 8.02296C15.7197 8.89748 14.3483 11.6926 13.9892 14.3442C13.7318 16.2507 13.8506 18.1882 13.7997 20.1115C13.7799 20.8623 13.7347 21.6103 13.6301 22.3527C13.3727 24.1748 12.7619 25.9238 12.4565 27.7375C12.1653 29.4641 11.956 31.2216 11.8542 32.979C11.7807 34.2669 11.908 35.6251 12.6177 36.7077C13.0645 37.3882 13.7149 37.914 14.3907 38.3695C14.7809 38.631 15.1881 38.8757 15.6236 39.0613C16.3164 39.3565 17.0686 39.4887 17.8179 39.5702C18.9151 39.6883 20.0207 39.6968 21.1207 39.5955C22.1669 39.4999 23.2499 39.2722 24.217 39.0894C25.1275 38.9179 25.6733 38.8054 26.4283 38.4567C27.073 38.1614 28.156 37.7678 28.4558 37.0535C27.2992 36.7639 26.2021 36.3084 25.4697 35.4029C24.2057 33.8367 24.7147 31.1878 26.4707 30.198C29.0977 28.7189 32.9462 30.8588 35.2225 28.8848C36.2914 27.9569 36.9276 26.0419 35.87 24.9143L35.8672 24.9115Z" fill="#179BC6"/>
<path d="M50.6505 24.2021C50.3055 22.3462 50.0001 20.3441 49.9068 18.1901C49.8728 17.4084 49.8672 16.607 49.8983 15.7831C50.2885 5.81755 44.3022 -0.138162 37.1368 0.00243513C34.9538 0.0446144 32.8924 1.27906 31.9083 3.21931C30.9243 5.15955 30.8197 7.41192 30.8536 9.58275C30.8791 11.2137 30.9582 12.8446 30.995 14.4812C31.0035 14.8355 31.012 15.1926 30.9582 15.5441C30.8734 16.1177 30.6387 16.6436 30.305 17.116C29.8583 17.7515 29.239 18.2885 28.5801 18.7103C27.4321 19.4471 26.1342 19.9251 24.9691 20.6337C24.1293 21.1455 23.298 21.8963 23.2386 22.872C23.2018 23.4822 23.4846 24.0699 23.8324 24.5761C24.0416 24.8769 24.282 25.1581 24.5619 25.3915C24.5902 25.414 24.6128 25.4393 24.6411 25.4618C24.7486 25.5462 24.8589 25.6221 24.9776 25.6868C25.7043 26.0945 26.4367 25.8864 27.2143 25.8246C27.2398 25.8246 27.2652 25.819 27.2907 25.8161C27.3444 25.8105 27.3953 25.8049 27.449 25.7993C27.5254 25.7908 27.6017 25.7824 27.6809 25.7711C27.7035 25.7683 27.729 25.7655 27.7516 25.7599C28.5462 25.6446 29.3408 25.4197 30.0958 25.1638C31.7698 24.5958 34.0433 23.3866 35.6664 24.7223C35.7371 24.7813 35.8021 24.8432 35.8615 24.9051C36.9219 26.0327 36.2857 27.9476 35.214 28.8755C32.9376 30.8495 29.0891 28.7096 26.4622 30.1887C24.7062 31.1785 24.1943 33.8274 25.4612 35.3936C26.1935 36.2991 27.2907 36.7546 28.4472 37.0443C28.9308 37.1652 29.4256 37.258 29.9092 37.3423C32.0865 37.7191 34.8237 38.1269 36.4581 38.3743C38.0897 38.6218 45.2948 42.1114 49.9124 37.3789C53.0964 34.1142 51.6939 29.8175 50.6448 24.1936L50.6505 24.2021Z" fill="#F37C0E"/>
<path d="M58.7043 16.2388C58.0256 15.1843 57.2536 14.0174 56.2328 13.5365C55.5316 13.2075 54.31 12.9123 53.6144 13.4915C52.9187 14.0708 52.5907 14.861 53.2863 15.862C53.982 16.8631 55.2969 15.7186 55.5033 15.8142C55.2544 17.2371 55.0452 19.7763 54.6097 19.9928C54.3552 20.1193 52.1948 18.9327 49.9072 18.1875C49.9977 20.3415 50.3031 22.3436 50.6509 24.1995C51.4625 24.385 52.3843 24.5369 53.5522 24.6775C56.985 25.0965 56.7418 24.0589 58.2857 23.1422C60.3556 21.9105 59.7957 17.9344 58.7043 16.2388Z" fill="#179BC6"/>
<path d="M13.6245 22.3491C13.7292 21.6067 13.7744 20.8588 13.7942 20.108C13.5086 20.451 13.2541 20.8194 13.0251 21.199C12.0693 20.6254 11.8148 20.6225 10.7092 20.4707C9.60353 20.316 7.52799 20.8419 6.99638 21.8148C7.32439 20.0405 7.07555 18.3842 6.76733 16.6071C7.02465 16.489 9.4678 17.895 10.6526 16.0053C11.8629 14.0707 12.4454 12.2176 11.0541 11.3993C9.09737 10.2464 7.78531 10.5305 6.91155 10.941C5.63625 11.5428 3.24117 14.9762 2.39286 16.2921C1.0299 18.4124 -1.45849 25.4282 1.12604 26.9663C3.05737 28.1136 5.87377 28.929 8.11898 29.0837C9.74209 29.1962 11.0711 29.2805 12.2757 29.2693C12.2927 28.9684 12.3181 28.6703 12.3577 28.3695C12.6094 26.3336 13.3361 24.3821 13.6245 22.3491Z" fill="#F37C0E"/>
<path d="M35.4797 7.93175C35.3977 7.8502 35.2817 7.79678 35.1686 7.81084C35.1403 7.81365 35.1092 7.82208 35.0866 7.84177C35.0385 7.88114 35.0442 7.95143 35.0414 8.0133C35.0188 8.44353 35.1658 9.19151 35.327 9.27868C35.4882 9.36585 35.6182 9.28992 35.6917 9.19151C35.836 8.99748 35.7964 8.5785 35.655 8.22419C35.6126 8.11734 35.5588 8.0133 35.4768 7.93175H35.4797Z" fill="#3A3937"/>
<path d="M37.3488 7.93175C37.2668 7.8502 37.1509 7.79678 37.0378 7.81084C37.0095 7.81365 36.9784 7.82208 36.9558 7.84177C36.9077 7.88114 36.9133 7.95143 36.9105 8.0133C36.8879 8.44353 37.0349 9.19151 37.1961 9.27868C37.3573 9.36585 37.4874 9.28992 37.5609 9.19151C37.7051 8.99748 37.6655 8.5785 37.5241 8.22419C37.4817 8.11734 37.428 8.0133 37.346 7.93175H37.3488Z" fill="#3A3937"/>
</svg>
