<svg width="143" height="41" viewBox="0 0 143 41" fill="none" xmlns="http://www.w3.org/2000/svg">
<path d="M7.83632 17.4429C6.67923 17.4429 5.62178 17.2293 4.66295 16.8023C3.70413 16.3752 2.87545 15.7743 2.17693 14.9975C1.4784 14.2217 0.940521 13.3107 0.564313 12.2674C0.188104 11.2232 0 10.0834 0 8.84903V8.58162C0 7.35538 0.188104 6.22168 0.564313 5.18151C0.940521 4.14134 1.47636 3.23336 2.17082 2.45654C2.86529 1.68074 3.69193 1.07677 4.65075 0.645655C5.61059 0.215557 6.66804 0 7.82514 0C8.9741 0 10.0295 0.215557 10.9924 0.646672C11.9553 1.07779 12.7931 1.68074 13.5079 2.45756C14.2217 3.23438 14.7728 4.14236 15.1612 5.18253C15.5496 6.22269 15.7438 7.3564 15.7438 8.58264V8.85005C15.7438 10.0844 15.5496 11.2232 15.1612 12.2674C14.7728 13.3117 14.2237 14.2217 13.514 14.9975C12.8033 15.7743 11.9675 16.3752 11.0046 16.8023C10.0407 17.2293 8.98528 17.4429 7.83632 17.4429ZM7.83632 14.5898C8.74431 14.5898 9.51096 14.3488 10.1363 13.8679C10.7606 13.3869 11.2324 12.7169 11.5506 11.8597C11.8689 11.0016 12.0285 9.99901 12.0285 8.85005V8.55925C12.0285 7.43368 11.8668 6.44435 11.5455 5.59026C11.2232 4.73616 10.7494 4.06915 10.1251 3.5872C9.49977 3.10626 8.73312 2.86529 7.82514 2.86529C6.89377 2.86529 6.12508 3.10423 5.5201 3.5811C4.91511 4.05797 4.46366 4.72193 4.1688 5.57195C3.87393 6.42198 3.7265 7.41741 3.7265 8.55824V8.84903C3.7265 9.998 3.87596 11.0036 4.1749 11.8648C4.47383 12.726 4.92731 13.3961 5.53738 13.8729C6.14643 14.3518 6.91207 14.5898 7.83632 14.5898Z" fill="#6450DC"/>
<path d="M17.1053 21.3393V19.6819C17.1053 19.5345 17.213 19.4094 17.3595 19.3871L18.4586 19.2223C18.605 19.201 18.7128 19.0749 18.7128 18.9275V7.31382C18.7128 7.16435 18.603 7.03827 18.4545 7.01793L17.1775 6.84508C17.03 6.82474 16.9192 6.69866 16.9192 6.5492V4.89693C16.9192 4.73221 17.0524 4.59901 17.2171 4.59901H21.9431C22.0997 4.59901 22.2298 4.72001 22.24 4.87659L22.3061 5.82322C22.3112 5.89744 22.4047 5.92184 22.4484 5.86185C22.7789 5.41345 23.1673 5.06063 23.6137 4.80339C24.118 4.51259 24.7311 4.36719 25.453 4.36719C26.4546 4.36719 27.3137 4.64273 28.0326 5.19383C28.7504 5.74492 29.3015 6.51564 29.6859 7.50497C30.0702 8.4943 30.2624 9.64936 30.2624 10.9691V11.2132C30.2624 12.4557 30.0702 13.5457 29.6859 14.4852C29.3015 15.4247 28.7464 16.1527 28.0204 16.6682C27.2944 17.1847 26.423 17.443 25.4062 17.443C24.7545 17.443 24.182 17.324 23.6889 17.0881C23.2588 16.8817 22.8806 16.5879 22.5542 16.2066C22.5054 16.1496 22.4149 16.1812 22.4149 16.2554V18.9305C22.4149 19.0769 22.5216 19.202 22.667 19.2254L23.7001 19.3871C23.8455 19.4094 23.9523 19.5345 23.9523 19.6819V21.3413C23.9523 21.506 23.8191 21.6392 23.6543 21.6392H17.4042C17.2385 21.6372 17.1053 21.504 17.1053 21.3393ZM24.301 14.6011C25.1083 14.6011 25.6828 14.2981 26.0245 13.6931C26.3661 13.0871 26.5369 12.2604 26.5369 11.2132V10.9691C26.5369 10.2238 26.4596 9.57208 26.3041 9.01285C26.1485 8.45363 25.9065 8.01946 25.5761 7.70833C25.2456 7.39821 24.8135 7.24264 24.2776 7.24264C23.8658 7.24264 23.5018 7.33415 23.1836 7.51615C22.9243 7.6646 22.7067 7.87101 22.5298 8.13436C22.4484 8.25535 22.4149 8.40177 22.4149 8.54819V13.3952C22.4149 13.5884 22.483 13.7765 22.6101 13.9219C22.7718 14.1059 22.965 14.2523 23.1887 14.3631C23.511 14.5218 23.8821 14.6011 24.301 14.6011Z" fill="#6450DC"/>
<path d="M37.8897 17.4432C36.6706 17.4432 35.607 17.1778 34.699 16.646C33.791 16.1142 33.0864 15.3842 32.5851 14.4569C32.0849 13.5296 31.8337 12.4752 31.8337 11.2957V10.8412C31.8337 9.58344 32.0625 8.466 32.5211 7.48786C32.9786 6.50972 33.6385 5.74307 34.5008 5.1879C35.362 4.63274 36.395 4.35923 37.5979 4.36736C38.7387 4.36736 39.7016 4.58902 40.4855 5.03132C41.2695 5.47362 41.8653 6.12029 42.273 6.97032C42.6807 7.82035 42.8841 8.85441 42.8841 10.0735V11.7553C42.8841 11.92 42.7509 12.0532 42.5862 12.0532H35.9497C35.8053 12.0532 35.6894 12.1813 35.7117 12.3237C35.7778 12.7324 35.908 13.0954 36.09 13.3984C36.3116 13.7675 36.6177 14.0603 37.0102 14.2779C37.4016 14.4955 37.8815 14.6043 38.4479 14.6043C39.0305 14.6043 39.5836 14.5341 40.1073 14.3948C40.5496 14.2769 40.9959 14.104 41.4464 13.8753C41.5816 13.8071 41.7463 13.8631 41.8043 14.0034L42.5272 15.7644C42.5872 15.9098 42.5414 16.0807 42.4113 16.1691C41.909 16.5118 41.3081 16.8016 40.6086 17.0375C39.8043 17.3069 38.8983 17.4432 37.8897 17.4432ZM39.1576 9.66479C39.3142 9.66479 39.4382 9.53566 39.4362 9.37907C39.4291 8.88492 39.3965 8.51074 39.2695 8.13352C39.1556 7.79594 38.9705 7.53768 38.7102 7.35873C38.4499 7.17978 38.1063 7.09132 37.6802 7.09132C37.245 7.09132 36.8882 7.20011 36.6085 7.4177C36.3289 7.63529 36.1174 7.93423 35.9741 8.3145C35.8571 8.6236 35.7646 9.0049 35.7046 9.39534C35.6833 9.53769 35.7971 9.6658 35.9415 9.6658L39.1576 9.66479Z" fill="#6450DC"/>
<path d="M137.355 17.4432C136.135 17.4432 135.072 17.1778 134.164 16.646C133.256 16.1142 132.551 15.3842 132.05 14.4569C131.55 13.5296 131.299 12.4752 131.299 11.2957V10.8412C131.299 9.58344 131.527 8.466 131.986 7.48786C132.443 6.50972 133.103 5.74307 133.966 5.1879C134.827 4.63274 135.86 4.35923 137.063 4.36736C138.204 4.36736 139.166 4.58902 139.95 5.03132C140.734 5.47362 141.33 6.12029 141.738 6.97032C142.146 7.82035 142.349 8.85441 142.349 10.0735V11.7553C142.349 11.92 142.216 12.0532 142.051 12.0532H135.415C135.27 12.0532 135.154 12.1813 135.177 12.3237C135.243 12.7324 135.373 13.0954 135.555 13.3984C135.776 13.7675 136.083 14.0603 136.475 14.2779C136.866 14.4955 137.346 14.6043 137.913 14.6043C138.495 14.6043 139.048 14.5341 139.572 14.3948C140.014 14.2769 140.461 14.104 140.911 13.8753C141.046 13.8071 141.211 13.8631 141.269 14.0034L141.992 15.7644C142.052 15.9098 142.006 16.0807 141.876 16.1691C141.374 16.5118 140.773 16.8016 140.073 17.0375C139.27 17.3069 138.363 17.4432 137.355 17.4432ZM138.623 9.66479C138.78 9.66479 138.904 9.53566 138.902 9.37907C138.895 8.88492 138.862 8.51074 138.735 8.13352C138.621 7.79594 138.436 7.53768 138.176 7.35873C137.916 7.17978 137.572 7.09132 137.145 7.09132C136.71 7.09132 136.353 7.20011 136.073 7.4177C135.794 7.63529 135.582 7.93423 135.439 8.3145C135.322 8.6236 135.229 9.0049 135.169 9.39534C135.148 9.53769 135.262 9.6658 135.406 9.6658L138.623 9.66479Z" fill="#6450DC"/>
<path d="M44.2241 16.9V15.2528C44.2241 15.1054 44.3319 14.9803 44.4763 14.958L45.5317 14.7953C45.6771 14.7729 45.7839 14.6478 45.7839 14.5004V7.31483C45.7839 7.16537 45.6741 7.03928 45.5256 7.01997L44.2597 6.84711C44.1123 6.82678 44.0015 6.7007 44.0015 6.55225V4.89795C44.0015 4.73323 44.1347 4.60003 44.2994 4.60003H49.0447C49.2023 4.60003 49.3335 4.72306 49.3426 4.88168L49.4148 6.1557C49.4189 6.23094 49.5134 6.25535 49.5572 6.19434C49.9517 5.64731 50.4245 5.21518 50.9766 4.89693C51.5897 4.54411 52.2882 4.36719 53.0722 4.36719C54.2831 4.36719 55.2379 4.76678 55.9364 5.56699C56.635 6.36618 56.9847 7.628 56.9847 9.35144V14.5024C56.9847 14.6499 57.0915 14.7749 57.2369 14.7973L58.2811 14.96C58.4265 14.9824 58.5333 15.1074 58.5333 15.2549V16.902C58.5333 17.0668 58.4001 17.2 58.2354 17.2H52.2059C52.0411 17.2 51.9079 17.0668 51.9079 16.902V15.2488C51.9079 15.1044 52.0117 14.9814 52.153 14.9549L53.001 14.8024C53.1433 14.777 53.246 14.6529 53.246 14.5086V9.35043C53.246 8.58987 53.0925 8.04793 52.7864 7.72561C52.4794 7.40329 52.035 7.24264 51.4534 7.24264C51.0183 7.24264 50.64 7.33008 50.3177 7.50497C50.0869 7.63003 49.8835 7.79374 49.7066 7.99607C49.5785 8.14249 49.5083 8.33161 49.5083 8.52582V14.5136C49.5083 14.656 49.609 14.778 49.7483 14.8065L50.4794 14.9519C50.6187 14.9793 50.7193 15.1023 50.7193 15.2447V16.9031C50.7193 17.0678 50.5861 17.201 50.4214 17.201H44.52C44.3584 17.1989 44.2241 17.0647 44.2241 16.9Z" fill="#6450DC"/>
<path d="M67.5578 17.4429C65.9279 17.4429 64.4912 17.1073 63.2497 16.4352C62.0072 15.7642 61.0412 14.8033 60.3498 13.5537C59.6584 12.3041 59.3137 10.8053 59.3137 9.05951V8.39555C59.3137 6.75752 59.6401 5.30759 60.2919 4.04678C60.9436 2.78496 61.874 1.79563 63.0809 1.07779C64.2878 0.358923 65.7225 0 67.3829 0C68.5471 0 69.6473 0.159634 70.6844 0.477886C71.6452 0.772753 72.5247 1.23844 73.3229 1.87393C73.4409 1.96849 73.508 2.11389 73.508 2.26539V5.1083C73.508 5.27302 73.3748 5.40622 73.2101 5.40622H70.9172C70.7647 5.40622 70.6356 5.29031 70.6203 5.13779L70.5014 3.95832C70.4891 3.83834 70.4251 3.72955 70.3234 3.66549C70.0845 3.51399 69.8008 3.35537 69.5608 3.24759C69.266 3.11541 68.9477 3.01475 68.6061 2.94459C68.2644 2.87444 67.8953 2.83987 67.4998 2.83987C66.5837 2.83987 65.7916 3.06152 65.1246 3.50382C64.4566 3.94612 63.9411 4.57856 63.5761 5.40215C63.211 6.22473 63.029 7.21507 63.029 8.37115V9.05849C63.029 10.1759 63.2171 11.1531 63.5933 11.9868C63.9696 12.8216 64.5034 13.4672 65.1948 13.9258C65.8852 14.3844 66.6894 14.6132 67.6056 14.6132C68.0865 14.6132 68.5684 14.5603 69.0494 14.4556C69.4449 14.3691 69.876 14.2369 70.2492 14.0977C70.3915 14.0448 70.4922 13.9187 70.5095 13.7672L70.6264 12.7148C70.6437 12.5643 70.7708 12.4495 70.9223 12.4495H73.2223C73.387 12.4495 73.5202 12.5827 73.5202 12.7474V15.5252C73.5202 15.696 73.4368 15.8567 73.2914 15.9462C72.664 16.3335 71.8994 16.6711 70.9986 16.9579C69.9858 17.2812 68.8389 17.4429 67.5578 17.4429Z" fill="#6450DC"/>
<path d="M89.7169 16.9025V15.2553C89.7169 15.1079 89.8247 14.9828 89.9701 14.9604L91.0357 14.7978C91.1811 14.7754 91.2889 14.6503 91.2889 14.5029V3.12004C91.2889 2.97057 91.178 2.84449 91.0306 2.82415L89.7434 2.65232C89.5949 2.633 89.4851 2.5059 89.4851 2.35643V0.704166C89.4851 0.539448 89.6183 0.40625 89.783 0.40625H94.7175C94.8822 0.40625 95.0154 0.539448 95.0154 0.704166V14.5039C95.0154 14.6513 95.1232 14.7764 95.2675 14.7988L96.323 14.9615C96.4684 14.9838 96.5751 15.1089 96.5751 15.2563V16.9035C96.5751 17.0682 96.4419 17.2014 96.2772 17.2014H90.0148C89.8501 17.2014 89.7169 17.0672 89.7169 16.9025Z" fill="#6450DC"/>
<path d="M111.375 17.4445C110.063 17.4445 109.03 17.0276 108.278 16.1929C107.524 15.3581 107.148 14.0678 107.148 12.321V7.3062C107.148 7.16181 107.044 7.03777 106.902 7.01235L106.032 6.8578C105.889 6.83238 105.786 6.70833 105.786 6.56395V4.89948C105.786 4.73476 105.919 4.60156 106.084 4.60156H107.148H110.576C110.74 4.60156 110.874 4.73476 110.874 4.89948V12.3443C110.874 13.1049 111.017 13.6662 111.305 14.0271C111.591 14.3881 112.031 14.5691 112.62 14.5691C113.024 14.5691 113.398 14.4918 113.744 14.3362C113.979 14.2305 114.19 14.0902 114.377 13.9163C114.537 13.7678 114.623 13.5553 114.623 13.3377V7.30823C114.623 7.16283 114.519 7.03878 114.375 7.01438L113.44 6.85576C113.297 6.83136 113.192 6.70731 113.192 6.56191V4.89948C113.192 4.73476 113.325 4.60156 113.49 4.60156H114.623H118.051C118.216 4.60156 118.349 4.73476 118.349 4.89948V14.504C118.349 14.6514 118.456 14.7765 118.601 14.7988L119.645 14.9615C119.791 14.9839 119.898 15.109 119.898 15.2564V16.9036C119.898 17.0683 119.764 17.2015 119.6 17.2015H115.286C115.134 17.2015 115.007 17.0866 114.991 16.9351L114.878 15.8848C114.87 15.8136 114.781 15.7912 114.737 15.8471C114.357 16.3362 113.902 16.7175 113.372 16.991C112.785 17.293 112.12 17.4445 111.375 17.4445Z" fill="#6450DC"/>
<path d="M80.2626 17.4445C78.9509 17.4445 77.9179 17.0276 77.1655 16.1929C76.412 15.3581 76.0358 14.0678 76.0358 12.321V7.3062C76.0358 7.16181 75.9321 7.03777 75.7898 7.01235L74.9194 6.8578C74.7771 6.83238 74.6733 6.70833 74.6733 6.56395V4.89948C74.6733 4.73476 74.8065 4.60156 74.9713 4.60156H79.4634C79.6281 4.60156 79.7613 4.73476 79.7613 4.89948V12.3443C79.7613 13.1049 79.9047 13.6662 80.1924 14.0271C80.4792 14.3881 80.9184 14.5691 81.5081 14.5691C81.9118 14.5691 82.286 14.4918 82.6317 14.3362C82.8666 14.2305 83.078 14.0902 83.2651 13.9163C83.4248 13.7678 83.5112 13.5553 83.5112 13.3377V7.30823C83.5112 7.16283 83.4065 7.03878 83.2631 7.01438L82.3277 6.85576C82.1843 6.83136 82.0796 6.70731 82.0796 6.56191V4.89948C82.0796 4.73476 82.2128 4.60156 82.3775 4.60156H86.9398C87.1045 4.60156 87.2377 4.73476 87.2377 4.89948V14.504C87.2377 14.6514 87.3445 14.7765 87.4899 14.7988L88.5341 14.9615C88.6795 14.9839 88.7862 15.109 88.7862 15.2564V16.9036C88.7862 17.0683 88.6531 17.2015 88.4883 17.2015H84.1751C84.0226 17.2015 83.8955 17.0866 83.8793 16.9351L83.7664 15.8848C83.7583 15.8136 83.6698 15.7912 83.6261 15.8471C83.2458 16.3362 82.7903 16.7175 82.2606 16.991C81.6739 17.293 81.0079 17.4445 80.2626 17.4445Z" fill="#6450DC"/>
<path d="M121.377 16.899V15.2518C121.377 15.1044 121.484 14.9793 121.629 14.9569L122.673 14.7943C122.819 14.7719 122.925 14.6468 122.925 14.4994V7.31382C122.925 7.16435 122.816 7.03827 122.668 7.01895L121.413 6.84711C121.266 6.82678 121.156 6.7007 121.156 6.55225V4.89693C121.156 4.73221 121.289 4.59901 121.454 4.59901H126.179C126.339 4.59901 126.471 4.72408 126.479 4.88371L126.542 6.12215C126.546 6.20349 126.657 6.22789 126.692 6.15469C126.961 5.59647 127.281 5.17146 127.653 4.87964C128.089 4.53801 128.623 4.36719 129.26 4.36719C129.446 4.36719 129.658 4.38244 129.894 4.41396C130.039 4.43328 130.178 4.45768 130.313 4.48818C130.459 4.52072 130.552 4.66409 130.535 4.81254L130.211 7.69918C130.193 7.85576 130.057 7.97066 129.901 7.96354L128.468 7.89541C128.017 7.87203 127.661 7.93405 127.396 8.08148C127.218 8.18113 127.047 8.31636 126.883 8.48616C126.736 8.63766 126.651 8.84 126.651 9.05149V14.5024C126.651 14.6499 126.759 14.7749 126.903 14.7973L127.959 14.96C128.104 14.9824 128.211 15.1074 128.211 15.2549V16.902C128.211 17.0668 128.077 17.2 127.913 17.2H121.674C121.51 17.1979 121.377 17.0637 121.377 16.899Z" fill="#6450DC"/>
<path d="M0.197388 40.4264V38.9592L2.09572 38.7965V25.1137L0.197388 24.9511V23.4727H12.9478V27.5479H11.1085L10.9803 25.2541H4.38855V31.1229H10.595V32.9277H4.38855V38.7965L6.28688 38.9592V40.4264H0.197388Z" fill="#6450DC"/>
<path d="M19.3857 40.6695C18.2215 40.6695 17.2179 40.396 16.3761 39.849C15.5331 39.302 14.8834 38.5445 14.4259 37.5785C13.9673 36.6116 13.7385 35.5084 13.7385 34.2659V34.0096C13.7385 32.7681 13.9673 31.6629 14.4259 30.697C14.8834 29.73 15.5342 28.9715 16.3761 28.4204C17.2179 27.8693 18.2134 27.5938 19.3623 27.5938C20.5265 27.5938 21.5301 27.8693 22.372 28.4204C23.2139 28.9715 23.8646 29.729 24.3222 30.6909C24.7797 31.6538 25.0095 32.76 25.0095 34.0096V34.2659C25.0095 35.5155 24.7808 36.6238 24.3222 37.5907C23.8636 38.5577 23.2159 39.3121 22.3781 39.8551C21.5403 40.3981 20.5428 40.6695 19.3857 40.6695ZM19.3857 38.8759C20.1148 38.8759 20.7269 38.6756 21.22 38.276C21.7131 37.8764 22.0853 37.3294 22.3374 36.6339C22.5896 35.9395 22.7157 35.1494 22.7157 34.2648V34.0086C22.7157 33.124 22.5896 32.334 22.3374 31.6395C22.0853 30.9451 21.7101 30.398 21.2139 29.9974C20.7167 29.5978 20.0995 29.3975 19.3623 29.3975C18.6323 29.3975 18.0192 29.5978 17.523 29.9974C17.0258 30.397 16.6536 30.9451 16.4055 31.6395C16.1574 32.334 16.0334 33.124 16.0334 34.0086V34.2648C16.0334 35.1494 16.1574 35.9395 16.4055 36.6339C16.6536 37.3284 17.0288 37.8764 17.5291 38.276C18.0293 38.6767 18.6486 38.8759 19.3857 38.8759Z" fill="#6450DC"/>
<path d="M32.3251 40.6711C30.9585 40.6711 29.8919 40.2328 29.1232 39.3554C28.3545 38.4779 27.9702 37.1123 27.9702 35.2567V29.4692L26.5264 29.3065V27.8281H27.9702H30.2641V35.2801C30.2641 36.6233 30.4623 37.5465 30.8579 38.0518C31.2534 38.5562 31.8706 38.8083 32.7094 38.8083C33.5249 38.8083 34.198 38.6436 34.7297 38.3132C35.2615 37.9837 35.6632 37.516 35.9346 36.91V29.4692L34.2458 29.3065V27.8281H35.9346H38.2285V38.7971L39.6723 38.9598V40.427H36.0922L36.017 38.5643C35.6215 39.2394 35.11 39.76 34.4857 40.1251C33.8594 40.4891 33.1395 40.6711 32.3251 40.6711Z" fill="#6450DC"/>
<path d="M41.2783 40.4284V38.9612L43.1766 38.7985V29.4716L41.2783 29.3089V27.8305H45.3068L45.3881 29.7054C45.8071 29.0384 46.3327 28.5199 46.9662 28.1508C47.5986 27.7817 48.3185 27.5977 49.1258 27.5977C50.4842 27.5977 51.5366 27.9952 52.2809 28.7914C53.0262 29.5875 53.3983 30.8158 53.3983 32.4772V38.7995L55.2967 38.9622V40.4294H49.2072V38.9622L51.1055 38.7995V32.5229C51.1055 31.4126 50.8859 30.6246 50.4476 30.1589C50.0094 29.6932 49.3393 29.4604 48.4395 29.4604C47.7796 29.4604 47.195 29.62 46.6866 29.9383C46.1782 30.2565 45.7725 30.6917 45.4695 31.2428V38.7995L47.3678 38.9622V40.4294H41.2783V40.4284Z" fill="#6450DC"/>
<path d="M113.344 40.4284V38.9612L115.242 38.7985V29.4716L113.344 29.3089V27.8305H117.372L117.454 29.7054C117.872 29.0384 118.398 28.5199 119.032 28.1508C119.664 27.7817 120.384 27.5977 121.191 27.5977C122.55 27.5977 123.602 27.9952 124.346 28.7914C125.092 29.5875 125.464 30.8158 125.464 32.4772V38.7995L127.362 38.9622V40.4294H121.273V38.9622L123.171 38.7995V32.5229C123.171 31.4126 122.951 30.6246 122.513 30.1589C122.075 29.6932 121.405 29.4604 120.505 29.4604C119.845 29.4604 119.26 29.62 118.752 29.9383C118.244 30.2565 117.838 30.6917 117.535 31.2428V38.7995L119.433 38.9622V40.4294H113.344V40.4284Z" fill="#6450DC"/>
<path d="M61.7479 40.6705C60.723 40.6705 59.8445 40.4163 59.1104 39.9079C58.3773 39.3995 57.816 38.6908 57.4276 37.7828C57.0392 36.8748 56.845 35.8153 56.845 34.6044V34.3603C56.845 33.0101 57.0392 31.8255 57.4276 30.8087C57.816 29.7919 58.3783 29.0019 59.1165 28.4396C59.8536 27.8773 60.7392 27.5957 61.7713 27.5957C62.5166 27.5957 63.1744 27.734 63.7448 28.0095C64.3153 28.2851 64.8023 28.6826 65.2059 29.2032V25.1137L63.3076 24.9511V23.4727H65.2059H67.4998V38.7965L69.3981 38.9592V40.4264H65.4154L65.3219 38.9247C64.9101 39.4991 64.4078 39.9343 63.814 40.2292C63.2202 40.5241 62.5318 40.6705 61.7479 40.6705ZM62.3295 38.8077C63.0128 38.8077 63.5872 38.6522 64.0529 38.342C64.5186 38.0319 64.9029 37.5927 65.2059 37.0263V31.1809C64.9111 30.6532 64.5267 30.2342 64.0529 29.9231C63.5791 29.613 63.0128 29.4574 62.3529 29.4574C61.6228 29.4574 61.0209 29.6648 60.5481 30.0807C60.0743 30.4966 59.7214 31.07 59.4886 31.8041C59.2558 32.5372 59.1388 33.3893 59.1388 34.3603V34.6044C59.1388 35.8703 59.3991 36.887 59.9187 37.6547C60.4393 38.4234 61.2425 38.8077 62.3295 38.8077Z" fill="#6450DC"/>
<path d="M75.0568 40.6716C73.7452 40.6716 72.7477 40.3513 72.0645 39.7107C71.3812 39.0701 71.0396 38.1683 71.0396 37.003C71.0396 36.2038 71.2592 35.5063 71.6974 34.9125C72.1356 34.3187 72.7701 33.8571 73.6008 33.5267C74.4315 33.1972 75.4249 33.0315 76.582 33.0315H78.8291V31.7971C78.8291 31.0366 78.5983 30.4468 78.1367 30.0269C77.6751 29.608 77.0243 29.3985 76.1865 29.3985C75.6588 29.3985 75.2002 29.4626 74.8128 29.5907C74.4244 29.7188 73.9587 29.9445 73.6313 30.2079L73.5093 31.8785H71.7391V28.9908C72.3054 28.5333 72.9653 28.1855 73.7188 27.9486C74.4712 27.7117 75.306 27.5938 76.2221 27.5938C77.7513 27.5938 78.9511 27.9588 79.8205 28.6878C80.6898 29.4179 81.125 30.4621 81.125 31.8205V37.8866C81.125 38.0493 81.127 38.2089 81.1311 38.3645C81.1352 38.5201 81.1494 38.7214 81.1646 38.877L82.3827 38.9583V40.4255H78.9654C78.9654 40.4255 78.8637 39.5145 78.8433 38.6909C78.401 39.2572 77.8479 39.729 77.1839 40.1052C76.518 40.4835 75.8103 40.6716 75.0568 40.6716ZM75.3944 38.7499C76.155 38.7499 76.8494 38.5679 77.4788 38.2028C78.1072 37.8378 78.5576 37.3996 78.8291 36.8871V34.6044H76.5007C75.4453 34.6044 74.6532 34.8566 74.1255 35.3609C73.5978 35.8653 73.3334 36.4285 73.3334 37.0498C73.3334 37.6009 73.5042 38.0218 73.8459 38.3137C74.1875 38.6045 74.704 38.7499 75.3944 38.7499Z" fill="#6450DC"/>
<path d="M88.6112 40.6247C87.6798 40.6247 86.9406 40.3512 86.3926 39.8041C85.8455 39.2571 85.572 38.3817 85.572 37.1788V29.5275H83.5812V27.8275H85.572V24.6836H87.8659V27.8275H90.602V29.5275H87.8659V37.1778C87.8659 37.7838 87.9859 38.2302 88.2268 38.5169C88.4668 38.8036 88.7901 38.948 89.1938 38.948C89.4653 38.948 89.7479 38.9348 90.1018 38.9114C90.4383 38.89 90.6712 38.8616 90.8817 38.827L91.1694 40.3674C90.8267 40.4508 90.4577 40.5169 89.9686 40.5596C89.4033 40.6084 89.0311 40.6247 88.6112 40.6247Z" fill="#6450DC"/>
<path d="M92.5808 40.4264V38.9592L94.4791 38.7965V29.4696L92.5808 29.3069V27.8285H96.773V38.7976L98.6713 38.9602V40.4275H92.5808V40.4264ZM94.3632 25.9292V23.4727H96.774V25.9292H94.3632Z" fill="#6450DC"/>
<path d="M105.949 40.6695C104.785 40.6695 103.781 40.396 102.939 39.849C102.096 39.302 101.446 38.5445 100.989 37.5785C100.53 36.6116 100.302 35.5084 100.302 34.2659V34.0096C100.302 32.7681 100.53 31.6629 100.989 30.697C101.446 29.73 102.097 28.9715 102.939 28.4204C103.781 27.8693 104.777 27.5938 105.925 27.5938C107.09 27.5938 108.093 27.8693 108.935 28.4204C109.777 28.9715 110.428 29.729 110.885 30.6909C111.343 31.6538 111.573 32.76 111.573 34.0096V34.2659C111.573 35.5155 111.344 36.6238 110.885 37.5907C110.427 38.5577 109.779 39.3121 108.941 39.8551C108.103 40.3981 107.106 40.6695 105.949 40.6695ZM105.949 38.8759C106.678 38.8759 107.29 38.6756 107.783 38.276C108.276 37.8764 108.648 37.3294 108.9 36.6339C109.153 35.9395 109.279 35.1494 109.279 34.2648V34.0086C109.279 33.124 109.153 32.334 108.9 31.6395C108.648 30.9451 108.273 30.398 107.777 29.9974C107.28 29.5978 106.662 29.3975 105.925 29.3975C105.195 29.3975 104.582 29.5978 104.086 29.9974C103.589 30.397 103.217 30.9451 102.969 31.6395C102.719 32.334 102.596 33.124 102.596 34.0086V34.2648C102.596 35.1494 102.72 35.9395 102.969 36.6339C103.217 37.3284 103.592 37.8764 104.092 38.276C104.592 38.6767 105.212 38.8759 105.949 38.8759Z" fill="#6450DC"/>
<path d="M129.662 38.7969V40.4268H142.092V38.7969H129.662Z" fill="#6450DC"/>
<path d="M102.631 17.4562C101.388 17.4562 100.437 17.1206 99.7775 16.4485C99.1176 15.7775 98.7882 14.7119 98.7882 13.2518V7.49579C98.7882 7.33107 98.655 7.19787 98.4903 7.19787H97.4328C97.2681 7.19787 97.1349 7.06467 97.1349 6.89996V4.89995C97.1349 4.73523 97.2681 4.60203 97.4328 4.60203H98.4903C98.655 4.60203 98.7882 4.46884 98.7882 4.30412V1.80182C98.7882 1.6371 98.9214 1.50391 99.0861 1.50391H102.192C102.357 1.50391 102.49 1.6371 102.49 1.80182V4.3031C102.49 4.46782 102.623 4.60102 102.788 4.60102H104.393C104.557 4.60102 104.691 4.73422 104.691 4.89893V6.89894C104.691 7.06366 104.557 7.19686 104.393 7.19686H102.788C102.623 7.19686 102.49 7.33005 102.49 7.49477V13.2396C102.49 13.69 102.589 14.0103 102.787 14.2004C102.985 14.3906 103.255 14.4862 103.597 14.4862C103.805 14.4862 104.068 14.4658 104.331 14.4353C104.484 14.417 104.623 14.5289 104.639 14.6834L104.858 16.8329C104.877 17.0078 104.766 17.1715 104.596 17.2152C104.337 17.2823 104.067 17.3392 103.789 17.3779C103.403 17.4328 103.019 17.4562 102.631 17.4562Z" fill="#6450DC"/>
</svg>
