<svg width="33" height="32" viewBox="0 0 33 32" fill="none" xmlns="http://www.w3.org/2000/svg">
<path d="M22.3671 14.8967C22.2804 14.8551 22.1931 14.8149 22.1051 14.776C21.8666 11.0042 19.7422 8.83116 16.2644 8.80897L16.2169 8.80884C14.1057 8.80884 12.3472 9.71316 11.265 11.3553L11.1797 11.4846L13.3312 12.9605L13.4197 12.8262C14.1696 11.6884 15.3552 11.4495 16.2177 11.4495L16.2482 11.4496C17.3327 11.4565 18.1472 11.7673 18.6691 12.3732C19.0149 12.7749 19.2597 13.3238 19.3981 14.0072C18.4467 13.8636 17.4174 13.8222 16.3344 13.8843C12.9713 14.078 10.8099 16.0513 10.9562 18.7947C11.0305 20.1898 11.7251 21.3897 12.9119 22.1733C13.9069 22.83 15.1869 23.1516 16.5151 23.0792C18.2722 22.9828 19.6524 22.3102 20.6174 21.0801C21.3107 20.1963 21.7554 19.0847 21.9731 17.6877C22.6704 18.1523 23.1698 18.7284 23.459 19.4029C24.0066 20.68 24.0369 22.7802 22.3196 24.4959C20.7979 26.0161 18.9639 26.6734 16.1894 26.6938C13.1095 26.671 10.7832 25.6873 9.275 23.7701C7.85569 21.9658 7.12212 19.3515 7.09469 16.0026C7.12212 12.6509 7.85569 10.0367 9.275 8.23241C10.7831 6.31522 13.1094 5.33153 16.187 5.30866C19.2906 5.33172 21.6589 6.32091 23.2258 8.24878C23.9897 9.18866 24.5732 10.3773 24.9602 11.7818L25.0017 11.9327L27.5223 11.2603L27.4808 11.1073C27.0034 9.34778 26.2444 7.81972 25.225 6.56547C23.1449 4.00641 20.1074 2.69503 16.1959 2.66797H16.1794C12.2757 2.69497 9.27137 4.01184 7.24962 6.58191C5.45613 8.86184 4.53106 12.0275 4.50006 15.991L4.5 16.0023L4.50006 16.0118C4.53106 19.9752 5.45613 23.1407 7.24962 25.4207C9.27144 27.9908 12.2759 29.3076 16.1805 29.3346H16.1971C19.6674 29.3105 22.1162 28.3993 24.1371 26.3803C26.7954 23.7245 26.7143 20.3927 25.8371 18.3465C25.2062 16.8759 24.0064 15.683 22.3671 14.8967ZM13.5469 18.6516C13.4701 17.2096 15.0122 16.6054 16.4811 16.5207C16.7447 16.5055 17.009 16.4978 17.2666 16.4978C18.05 16.4978 18.7944 16.5685 19.4814 16.7078C19.3502 18.1129 18.9643 19.1255 18.3336 19.7185C17.7096 20.3052 16.9171 20.4126 16.3754 20.4423H16.3752C15.4666 20.4933 14.6136 20.246 14.0937 19.7802C13.7546 19.4763 13.5706 19.0966 13.5469 18.6516Z" fill="#3A3937"/>
</svg>
