<svg width="33" height="32" viewBox="0 0 33 32" fill="none" xmlns="http://www.w3.org/2000/svg">
<g clip-path="url(#clip0_4324_63105)">
<path d="M32.1812 9.59844C32.1812 9.59844 31.8688 7.39219 30.9062 6.42344C29.6875 5.14844 28.325 5.14219 27.7 5.06719C23.225 4.74219 16.5063 4.74219 16.5063 4.74219H16.4937C16.4937 4.74219 9.775 4.74219 5.3 5.06719C4.675 5.14219 3.3125 5.14844 2.09375 6.42344C1.13125 7.39219 0.825 9.59844 0.825 9.59844C0.825 9.59844 0.5 12.1922 0.5 14.7797V17.2047C0.5 19.7922 0.81875 22.3859 0.81875 22.3859C0.81875 22.3859 1.13125 24.5922 2.0875 25.5609C3.30625 26.8359 4.90625 26.7922 5.61875 26.9297C8.18125 27.1734 16.5 27.2484 16.5 27.2484C16.5 27.2484 23.225 27.2359 27.7 26.9172C28.325 26.8422 29.6875 26.8359 30.9062 25.5609C31.8688 24.5922 32.1812 22.3859 32.1812 22.3859C32.1812 22.3859 32.5 19.7984 32.5 17.2047V14.7797C32.5 12.1922 32.1812 9.59844 32.1812 9.59844ZM13.1938 20.1484V11.1547L21.8375 15.6672L13.1938 20.1484Z" fill="#3A3937"/>
</g>
<defs>
<clipPath id="clip0_4324_63105">
<rect width="32" height="32" fill="white" transform="translate(0.5)"/>
</clipPath>
</defs>
</svg>
